<?xml version="1.0" encoding="utf-8"?>
<!-- Generator: Adobe Illustrator 21.0.0, SVG Export Plug-In . SVG Version: 6.00 Build 0)  -->
<svg version="1.1" xmlns="http://www.w3.org/2000/svg" xmlns:xlink="http://www.w3.org/1999/xlink" x="0px" y="0px"
	 viewBox="0 0 350 320" style="enable-background:new 0 0 350 320;" xml:space="preserve">
<style type="text/css">
	.st0{fill:none;stroke:#333333;}
	.st1{fill:#666666;}
	.st2{fill:#333333;}
	.st3{fill:#FF9591;stroke:#FF2600;stroke-miterlimit:10;}
	.st4{fill:none;stroke:#000000;stroke-linecap:round;stroke-miterlimit:10;}
	.st5{fill:#262626;}
	.st6{fill:#FFFFFF;}
	.st7{fill:none;stroke:#FF0000;stroke-width:1.5;}
	.st8{fill:#FF0000;}
</style>
<g id="Layer_2">
	<line class="st0" x1="47.3" y1="58.7" x2="41.7" y2="58.7"/>
	<line class="st0" x1="46.9" y1="133" x2="41.7" y2="133"/>
	<line class="st0" x1="46.9" y1="207.3" x2="41.7" y2="207.3"/>
	<line class="st0" x1="124.4" y1="281.8" x2="124.4" y2="287"/>
	<line class="st0" x1="47" y1="58.7" x2="47" y2="281.8"/>
	<line class="st0" x1="208" y1="282.1" x2="46.7" y2="282.1"/>
	<g>
		<g>
			<path class="st1" d="M41.8,293c0.4,0.7,0.6,1.6,0.6,2.8c0,1.1-0.2,2.1-0.5,2.8c-0.5,1.1-1.3,1.6-2.4,1.6c-1,0-1.8-0.4-2.2-1.3
				c-0.4-0.7-0.6-1.7-0.6-2.9c0-1,0.1-1.8,0.4-2.5c0.5-1.3,1.3-1.9,2.5-1.9C40.5,291.7,41.3,292.2,41.8,293z M40.7,298.6
				c0.3-0.5,0.5-1.4,0.5-2.7c0-1-0.1-1.7-0.4-2.4c-0.2-0.6-0.7-0.9-1.4-0.9c-0.6,0-1.1,0.3-1.4,0.9c-0.3,0.6-0.4,1.4-0.4,2.6
				c0,0.9,0.1,1.5,0.3,2.1c0.3,0.8,0.8,1.2,1.4,1.2C39.9,299.4,40.4,299.1,40.7,298.6z"/>
		</g>
	</g>
	<g>
		<path class="st1" d="M124.4,291.5h1.3l3.1,8.6h-1.3l-0.9-2.6h-3.4l-0.9,2.6h-1.2L124.4,291.5z M126.3,296.6l-1.3-3.8l-1.4,3.8
			H126.3z"/>
	</g>
	<g>
		<path class="st1" d="M26.7,203.2c0.4,0.7,0.6,1.6,0.6,2.8c0,1.1-0.2,2.1-0.5,2.8c-0.5,1.1-1.3,1.6-2.4,1.6c-1,0-1.8-0.4-2.2-1.3
			c-0.4-0.7-0.6-1.7-0.6-2.9c0-1,0.1-1.8,0.4-2.5c0.5-1.3,1.3-1.9,2.5-1.9C25.4,201.9,26.2,202.3,26.7,203.2z M25.6,208.8
			c0.3-0.5,0.5-1.4,0.5-2.7c0-1-0.1-1.7-0.4-2.4c-0.2-0.6-0.7-0.9-1.4-0.9c-0.6,0-1.1,0.3-1.4,0.9c-0.3,0.6-0.4,1.4-0.4,2.6
			c0,0.9,0.1,1.5,0.3,2.1c0.3,0.8,0.8,1.2,1.4,1.2C24.9,209.5,25.3,209.3,25.6,208.8z"/>
		<path class="st1" d="M28.8,209H30v1.3h-1.2V209z"/>
		<path class="st1" d="M32.2,204.3v-0.8c0.8-0.1,1.3-0.2,1.6-0.4s0.5-0.6,0.7-1.2h0.8v8.4h-1.1v-5.9H32.2z"/>
	</g>
	<g>
		<path class="st1" d="M26.7,128.9c0.4,0.7,0.6,1.6,0.6,2.8c0,1.1-0.2,2.1-0.5,2.8c-0.5,1.1-1.3,1.6-2.4,1.6c-1,0-1.8-0.4-2.2-1.3
			c-0.4-0.7-0.6-1.7-0.6-2.9c0-1,0.1-1.8,0.4-2.5c0.5-1.3,1.3-1.9,2.5-1.9C25.4,127.5,26.2,128,26.7,128.9z M25.6,134.5
			c0.3-0.5,0.5-1.4,0.5-2.7c0-1-0.1-1.7-0.4-2.4c-0.2-0.6-0.7-0.9-1.4-0.9c-0.6,0-1.1,0.3-1.4,0.9c-0.3,0.6-0.4,1.4-0.4,2.6
			c0,0.9,0.1,1.5,0.3,2.1c0.3,0.8,0.8,1.2,1.4,1.2C24.9,135.2,25.3,134.9,25.6,134.5z"/>
		<path class="st1" d="M28.8,134.6H30v1.3h-1.2V134.6z"/>
		<path class="st1" d="M31.9,134c0.3-0.5,0.8-1,1.5-1.5l1.1-0.7c0.5-0.3,0.9-0.5,1.1-0.8c0.3-0.3,0.5-0.7,0.5-1.1
			c0-0.5-0.1-0.9-0.4-1.2s-0.7-0.4-1.2-0.4c-0.7,0-1.2,0.3-1.5,0.8c-0.1,0.3-0.2,0.7-0.2,1.2h-1.1c0-0.7,0.1-1.3,0.4-1.8
			c0.5-0.8,1.3-1.2,2.4-1.2c1,0,1.7,0.3,2.1,0.8s0.7,1.1,0.7,1.7c0,0.7-0.2,1.2-0.7,1.7c-0.3,0.3-0.8,0.6-1.5,1l-0.8,0.4
			c-0.4,0.2-0.7,0.4-0.9,0.6c-0.4,0.3-0.6,0.7-0.7,1.1h4.6v1h-5.8C31.5,135.2,31.6,134.6,31.9,134z"/>
	</g>
	<g>
		<path class="st1" d="M26.7,54.9c0.4,0.7,0.6,1.6,0.6,2.8c0,1.1-0.2,2.1-0.5,2.8c-0.5,1.1-1.3,1.6-2.4,1.6c-1,0-1.8-0.4-2.2-1.3
			c-0.4-0.7-0.6-1.7-0.6-2.9c0-1,0.1-1.8,0.4-2.5c0.5-1.3,1.3-1.9,2.5-1.9C25.4,53.5,26.2,54,26.7,54.9z M25.6,60.5
			c0.3-0.5,0.5-1.4,0.5-2.7c0-1-0.1-1.7-0.4-2.4c-0.2-0.6-0.7-0.9-1.4-0.9c-0.6,0-1.1,0.3-1.4,0.9c-0.3,0.6-0.4,1.4-0.4,2.6
			c0,0.9,0.1,1.5,0.3,2.1c0.3,0.8,0.8,1.2,1.4,1.2C24.9,61.2,25.3,60.9,25.6,60.5z"/>
		<path class="st1" d="M28.8,60.6H30v1.3h-1.2V60.6z"/>
		<path class="st1" d="M32,61.3c-0.4-0.5-0.7-1.2-0.7-2h1.1c0,0.5,0.1,0.9,0.3,1.2c0.3,0.4,0.8,0.7,1.5,0.7c0.6,0,1-0.1,1.3-0.4
			s0.5-0.7,0.5-1.1c0-0.6-0.2-1-0.5-1.2S34.7,58,34.1,58c-0.1,0-0.1,0-0.2,0s-0.1,0-0.2,0v-0.9c0.1,0,0.2,0,0.3,0s0.2,0,0.2,0
			c0.4,0,0.7-0.1,1-0.2c0.4-0.2,0.7-0.6,0.7-1.2c0-0.4-0.1-0.7-0.4-1s-0.6-0.3-1-0.3c-0.7,0-1.2,0.2-1.5,0.7
			c-0.1,0.3-0.2,0.6-0.3,1.1h-1c0-0.6,0.1-1.2,0.4-1.6c0.4-0.8,1.2-1.2,2.3-1.2c0.9,0,1.5,0.2,2,0.6s0.7,0.9,0.7,1.7
			c0,0.5-0.1,0.9-0.4,1.3c-0.2,0.2-0.4,0.4-0.7,0.5c0.4,0.1,0.8,0.4,1,0.7s0.4,0.8,0.4,1.3c0,0.8-0.3,1.5-0.8,2s-1.3,0.8-2.2,0.8
			C33.2,62.1,32.5,61.9,32,61.3z"/>
	</g>
	<g>
		<path class="st2" d="M23.9,39.2c-0.9-1.4-1.3-2.2-1.7-3.3c-0.4-1.3-0.7-2.7-0.7-4.2c0-1.5,0.2-2.9,0.7-4.2
			c0.4-1.1,0.8-1.9,1.7-3.3l1,0.6c-0.9,1.4-1.2,2.1-1.6,3.2c-0.4,1.2-0.5,2.4-0.5,3.6s0.2,2.5,0.5,3.6c0.4,1.1,0.7,1.9,1.6,3.2
			L23.9,39.2z"/>
		<path class="st2" d="M28.3,27.4c-0.5,0-0.9,0-1.3,0.1v-1.1c0.4,0.1,0.8,0.1,1.3,0.1h1.1l0-1.1c0-1,0-1.3-0.1-1.8l1.2,0
			c-0.1,0.5-0.1,0.5-0.1,2.9h1c0.5,0,0.9,0,1.3-0.1v1.1c-0.4-0.1-0.7-0.1-1.2-0.1h-1.1c0,1,0,1.7-0.1,2.6h1.2c0.5,0,0.8,0,1.3-0.1
			v1.1C32.3,31,31.9,31,31.5,31h-1.3c0,0.2,0,0.2,0,0.5c1.2,1.1,1.6,1.6,2.7,3.1l-0.8,0.8c-0.8-1.3-1.4-2-2.1-2.8
			c-0.4,2.1-1.3,3.6-2.7,4.9c-0.3-0.4-0.4-0.5-0.8-0.7c1.2-1.1,1.7-1.8,2.1-3c0.3-0.8,0.5-1.7,0.6-2.7h-1.1c-0.5,0-0.9,0-1.4,0.1V30
			c0.4,0.1,0.8,0.1,1.3,0.1h1.2c0-0.6,0-0.6,0.1-2.6H28.3z M37.3,26.3c-0.1,0.5-0.1,0.5-0.1,2.8c0,2-0.2,3.4-0.5,4.4
			c-0.4,1.1-1.1,2-2.1,2.9c-0.8,0.7-1.2,0.9-2.4,1.5c-0.2-0.4-0.4-0.6-0.7-0.9c1.4-0.5,2.5-1.3,3.4-2.3c1-1.3,1.3-2.4,1.3-5.4
			c0-2.4,0-2.5-0.1-3H37.3z M33.2,33.1c0.1-0.5,0.1-1,0.1-1.8v-5.6c0-1,0-1.2-0.1-1.7c0.5,0,1,0.1,1.8,0.1h3.4c0.8,0,1.3,0,1.8-0.1
			c0,0.4-0.1,0.8-0.1,1.6v5.7c0,0.9,0,1.4,0.1,1.8h-1.2c0.1-0.5,0.1-1,0.1-1.8v-6.3h-4.8v6.3c0,0.9,0,1.4,0.1,1.8H33.2z M38.1,32.6
			c0,0.5,0,0.9,0,1.5v2c0,0.5,0.1,0.6,0.7,0.6c0.8,0,1.1-0.1,1.3-0.4c0.1-0.3,0.2-1.1,0.3-2c0.2,0.1,0.6,0.2,1,0.3
			c-0.2,1.6-0.3,2.1-0.5,2.5c-0.3,0.4-1,0.5-2.2,0.5c-1.3,0-1.5-0.2-1.5-1.3V34c0-0.7,0-1,0-1.4H38.1z"/>
		<path class="st2" d="M45.9,36.1c0,0.9,0,1.4,0.1,1.9h-1.1c0.1-0.4,0.1-1,0.1-1.9v-4.5c0-0.6,0-1.6,0.1-2.5c-0.5,2.2-1,3.3-1.9,4.6
			c-0.2-0.5-0.4-0.7-0.6-0.9c1-1.3,1.8-3.2,2.2-5.3h-0.7c-0.4,0-0.8,0-1.1,0.1v-1c0.3,0,0.6,0.1,1.1,0.1H45V25c0-0.9,0-1.3-0.1-1.6
			H46c-0.1,0.4-0.1,0.8-0.1,1.6v1.6h0.7c0.5,0,0.7,0,1-0.1v1c-0.4,0-0.7,0-1,0h-0.7v0.8l0.2,0.3c0.6,0.7,1.2,1.6,1.6,2.2l-0.7,0.6
			c-0.4-0.8-0.7-1.3-1.1-1.9V36.1z M52.8,34.3c0.9,1.5,2.4,2.3,4.8,2.7c-0.2,0.3-0.4,0.6-0.5,1c-2.5-0.6-4-1.6-5-3.3
			c-0.8,1.6-2.2,2.6-4.8,3.2c-0.1-0.3-0.3-0.5-0.5-0.9c1.4-0.3,2.3-0.6,3-1.1c0.7-0.5,1.1-1,1.4-1.7H49c-0.6,0-1.1,0-1.6,0.1v-1
			c0.4,0,0.9,0.1,1.6,0.1h2.5c0.1-0.4,0.1-0.4,0.1-1.2h-1.9c-0.5,0-1,0-1.5,0.1c0-0.4,0-0.8,0-1.3v-2.6c0-0.5,0-0.9,0-1.3
			c0.4,0,0.8,0.1,1.5,0.1H55c0.7,0,1.1,0,1.5-0.1c0,0.4-0.1,0.7-0.1,1.3v2.6c0,0.6,0,0.9,0.1,1.3c-0.4,0-0.9-0.1-1.5-0.1h-2.3
			c0,0.6-0.1,0.9-0.1,1.2h3.4c0.7,0,1.1,0,1.6-0.1v1c-0.5-0.1-0.9-0.1-1.6-0.1H52.8z M51,25.8c0,0.4,0,0.6,0.1,0.9H50
			c0-0.3,0.1-0.5,0.1-0.9v-0.1h-1c-0.7,0-1.1,0-1.5,0.1v-1c0.4,0.1,0.7,0.1,1.5,0.1h1v-0.3c0-0.5,0-0.8-0.1-1.1h1.1
			c0,0.3-0.1,0.6-0.1,1.1v0.3h2.5v-0.3c0-0.5,0-0.8-0.1-1.1h1.1c0,0.3-0.1,0.6-0.1,1.1v0.3h1.3c0.8,0,1.2,0,1.7-0.1v1
			c-0.5-0.1-1-0.1-1.6-0.1h-1.3v0.1c0,0.4,0,0.7,0,0.9h-1c0-0.3,0-0.5,0-0.9v-0.1L51,25.8L51,25.8z M49.3,29.2h6.1V28h-6.1V29.2z
			 M49.3,31.4h6.1V30h-6.1V31.4z"/>
		<path class="st2" d="M60.1,24.2c0.9,1.4,1.3,2.2,1.7,3.3c0.4,1.3,0.7,2.7,0.7,4.2c0,1.5-0.2,2.9-0.7,4.2c-0.4,1.2-0.8,1.9-1.7,3.3
			l-1-0.6c0.9-1.4,1.2-2.1,1.6-3.2c0.4-1.2,0.5-2.4,0.5-3.6c0-1.3-0.2-2.5-0.5-3.6c-0.4-1.1-0.7-1.9-1.6-3.2L60.1,24.2z"/>
	</g>
	<g>
		<path class="st2" d="M220.7,99.2c-0.2,0.1-0.2,0.2-0.3,0.3c-0.2,0.2-0.8,0.7-1.6,1.5c-0.8,0.7-2.3,1.8-3.5,2.4
			c0.3,0,0.8,0.1,2.1,0.1c1.6,0,2.2-0.1,2.4-0.4c0.2-0.2,0.3-0.7,0.3-1.6c0.3,0.1,0.6,0.3,0.9,0.4c-0.1,1.2-0.3,1.8-0.6,2.1
			c-0.4,0.3-1.1,0.4-3.5,0.4c-1.9,0-2.5-0.1-2.8-0.4c-1.2,0.5-2.2,0.9-3.9,1.5l-0.1-0.1c-0.2-0.4-0.2-0.5-0.4-0.7
			c1.6-0.4,2.8-0.8,4.2-1.5v-2.6c0-0.5,0-0.8-0.1-1.2h1.1c-0.1,0.4-0.1,0.7-0.1,1.1v2.2c2.2-1.2,3.9-2.6,4.9-4.1L220.7,99.2z
			 M222.1,97.2c0.6,0,1.1,0,1.6-0.1c0,0.3-0.1,0.6-0.1,1.1V99c0,0.5,0,0.8,0.1,1.1h-1v-2h-11.3v2h-1c0-0.3,0.1-0.6,0.1-1.1v-0.7
			c0-0.4,0-0.7-0.1-1.1c0.6,0.1,1,0.1,1.6,0.1h4.5c-0.2-0.4-0.5-0.8-0.8-1.2l0.8-0.5c0.5,0.6,0.7,0.9,1.1,1.6H222.1z M210.4,102.6
			c1.1-0.9,1.6-1.6,2.1-2.7l0.8,0.5c-0.5,1.1-1,1.8-2.2,2.9L210.4,102.6z M216.5,106.3c0-0.7,0-1-0.1-1.4h1.2
			c-0.1,0.4-0.1,0.7-0.1,1.4v2.2h3.9v-1.6c0-0.6,0-0.9-0.1-1.2h1.2c-0.1,0.4-0.1,0.7-0.1,1.3v1.7c0,0.6,0,1.1,0.1,1.5h-1.1v-0.8
			h-8.6c-0.2,0-0.9,0-1.3,0.1c0.1-0.4,0.1-0.7,0.1-1.1V107c0-0.6,0-0.9-0.1-1.2h1.2c-0.1,0.3-0.1,0.6-0.1,1.2v1.5h3.8V106.3z
			 M217.4,100.4c-0.8-0.7-1.4-1.2-2.2-1.6l0.6-0.6c0.8,0.4,1.3,0.8,2.2,1.4L217.4,100.4z M223.1,103.4c-0.7-1.3-1.3-2-2.2-2.9
			l0.7-0.5c1.1,1,1.5,1.5,2.3,2.8L223.1,103.4z"/>
		<path class="st2" d="M228.6,100.5c-0.1,3-0.2,4.4-0.4,5.8c-0.3,1.4-0.6,2.4-1.3,3.7c-0.3-0.4-0.5-0.6-0.8-0.8
			c0.6-1,0.9-1.8,1.1-2.9c0.3-1.6,0.5-3.8,0.5-7.4c0-1,0-1.5-0.1-2c0.5,0,1,0.1,1.6,0.1h4.6c-0.3-0.5-0.4-0.7-0.7-1.1l0.9-0.5
			c0.3,0.4,0.3,0.4,0.9,1.4c0,0,0,0,0.1,0.2h3.9c0.8,0,1.3,0,1.7-0.1V98c-0.5-0.1-0.9-0.1-1.7-0.1h-10.2l0,1.7h2.9v-0.3
			c0-0.4,0-0.7-0.1-1h1.1c0,0.3-0.1,0.6-0.1,1v0.3h3.7v-0.2c0-0.4,0-0.8-0.1-1.1h1.1c0,0.3-0.1,0.6-0.1,1.1v0.2h1.9
			c0.7,0,1.1,0,1.5-0.1v1c-0.4-0.1-0.8-0.1-1.5-0.1h-1.9v1.6c0,0.4,0,0.7,0,1c-0.3,0-0.4,0-1,0h-3.6c-0.6,0-0.9,0-1.2,0
			c0-0.3,0-0.6,0-1v-1.6H228.6z M238.5,104.8c-0.2,0.2-0.3,0.3-0.5,0.6c-0.7,0.8-1.7,1.7-2.6,2.3c1.6,0.8,3.3,1.2,5.2,1.3
			c-0.2,0.4-0.4,0.6-0.5,1.1c-2.4-0.4-4.1-0.9-5.7-1.8c-1.8,0.9-3.3,1.5-5.8,1.9c-0.1-0.4-0.2-0.6-0.4-1c2.3-0.3,3.9-0.7,5.4-1.5
			c-1.1-0.8-1.8-1.5-2.6-2.7c-0.8,0-1.2,0-1.6,0.1v-1c0.4,0.1,0.8,0.1,1.6,0.1h5.8c0.5,0,0.8,0,1.1,0L238.5,104.8z M232.1,105.1
			c0.6,0.9,1.3,1.5,2.4,2.2c1-0.7,1.6-1.1,2.6-2.2H232.1z M232.5,102.2h3.7v-1.7h-3.7V102.2z"/>
		<path class="st2" d="M243.1,110.2c0.1-0.5,0.1-0.8,0.1-1.9v-10c0-0.8,0-1.2-0.1-2c0.6,0.1,1,0.1,2,0.1h9.6c0.9,0,1.3,0,1.9-0.1
			c-0.1,0.7-0.1,1.2-0.1,2v10c0,0.9,0,1.4,0.1,1.9h-1.1v-0.8h-11.2v0.8H243.1z M244.2,108.5h11.2V97.2h-11.2V108.5z M253.3,99.2
			C253.3,99.2,253.3,99.2,253.3,99.2c-0.2,0.2-0.2,0.2-0.3,0.4c-0.7,0.9-1.3,1.5-2.3,2.3c1.3,0.8,2.4,1.2,4.6,1.7
			c-0.2,0.3-0.3,0.5-0.5,0.9c-2.4-0.7-3.4-1.1-4.8-2c-1.4,0.9-2.5,1.4-4.8,2.1c-0.2-0.3-0.2-0.4-0.6-0.8c2.1-0.5,3.4-1,4.7-1.9
			c-0.7-0.5-1-0.8-1.8-1.7c-0.7,0.6-1,0.8-1.9,1.4c-0.2-0.3-0.4-0.4-0.7-0.6c1.3-0.7,2.3-1.5,2.9-2.5c0.2-0.3,0.3-0.5,0.4-0.8l1,0.3
			c-0.1,0.1-0.1,0.1-0.1,0.2c0,0,0,0-0.1,0.1c-0.1,0.1-0.2,0.2-0.3,0.4h3.1c0.5,0,0.8,0,1.1-0.1L253.3,99.2z M252.9,107.8
			c-2.4-0.8-4.1-1.2-6.9-1.5l0.4-0.8c2.5,0.4,4.2,0.7,6.8,1.5L252.9,107.8z M248.1,99.4C248.1,99.4,248.1,99.4,248.1,99.4
			c-0.1,0.1-0.1,0.2-0.2,0.2c0.8,0.9,1.1,1.1,2,1.7c1-0.7,1.4-1.1,2.1-2H248.1z M251.8,105.5c-1.4-0.6-2.1-0.8-3.8-1.2l0.4-0.8
			c1.6,0.4,2.4,0.7,3.7,1.2L251.8,105.5z"/>
		<path class="st2" d="M266.7,103.4c-0.1,0.4-0.1,0.6-0.1,0.9c-0.1,1.8-0.4,2.7-1.2,3.5c-1.1,1.2-3.2,2-6.1,2.5
			c-0.1-0.4-0.2-0.6-0.5-1c2.5-0.3,4.6-1,5.6-1.9c0.5-0.4,0.9-1.2,1-1.9c0.1-0.3,0.1-0.7,0.1-1.1c0-0.3,0-0.5-0.1-1H266.7z
			 M271.4,96.9c0.7,0,1.1,0,1.6-0.1c0,0.4-0.1,0.6-0.1,1.1v0.7c0,0.5,0,0.7,0.1,1.1h-1v-2h-11.6v2h-1c0-0.6,0-0.7,0-1.2v-0.7
			c0-0.5,0-0.7-0.1-1.1c0.6,0,0.9,0.1,1.6,0.1h4.7c0,0,0-0.1-0.1-0.1c-0.3-0.4-0.3-0.5-0.5-0.7l0.8-0.5c0.5,0.8,0.6,0.9,0.8,1.3
			H271.4z M262.6,100.2c-0.9,0-1.2,0-1.6,0.1v-1c0.4,0.1,0.7,0.1,1.6,0.1h1.1c0-0.7,0-0.9,0-1.2h1c0,0.3,0,0.5,0,1.2h3.2
			c0-0.6,0-0.9-0.1-1.2h1.1c0,0.3-0.1,0.6-0.1,1.2h1.2c0.8,0,1.2,0,1.6-0.1v1c-0.4-0.1-0.7-0.1-1.6-0.1h-1.2c0,0.6,0,1,0.1,1.3h-1.1
			c0-0.2,0-0.5,0.1-1.3h-3.2c0,0.8,0,1,0,1.3h-1c0-0.4,0-0.6,0-1.3H262.6z M262.5,105.3c0,0.8,0,1.4,0,1.8h-1.1
			c0-0.6,0.1-0.9,0.1-1.8v-1.6c0-0.8,0-1.2-0.1-1.8c0.5,0.1,0.9,0.1,1.7,0.1h6.1c0.8,0,1.1,0,1.7-0.1c0,0.5-0.1,0.9-0.1,1.8v1.6
			c0,0.9,0,1.3,0.1,1.8h-1.1c0-0.4,0-1,0-1.8v-2.5h-7.4V105.3z M267.7,106.1c0,0.3-0.1,0.4-0.1,0.9v1.6c0,0.4,0.4,0.5,1.9,0.5
			c1.5,0,2.1-0.1,2.4-0.3c0.3-0.2,0.4-0.5,0.4-1.8c0.4,0.2,0.7,0.3,1,0.4c-0.1,1-0.2,1.4-0.4,1.8c-0.4,0.6-1,0.8-3.2,0.8
			c-1.1,0-1.8,0-2.3-0.1c-0.6-0.1-0.7-0.3-0.7-1V107c0-0.6,0-0.7-0.1-0.9H267.7z"/>
		<path class="st2" d="M290,102.4v1.1h-8.8v-1.1H290z M290,105.6v1.1h-8.8v-1.1H290z"/>
		<path class="st2" d="M300.1,102.7c-0.1,0.2-0.1,0.2-0.3,0.8c-0.4,1.2-0.8,1.9-1.5,2.8c-0.2-0.3-0.4-0.4-0.8-0.6
			c0.7-0.9,1-1.5,1.4-2.5c0.2-0.5,0.2-0.6,0.3-0.9L300.1,102.7z M304,100.6c0.5,0,0.8,0,1-0.1v1c-0.3,0-0.5-0.1-1-0.1H302v3.1
			c0,0.7,0,1.1,0.1,1.6H301c0.1-0.5,0.1-0.9,0.1-1.6v-3.1h-2.2c-0.6,0-0.9,0-1.3,0.1v-1c0.3,0,0.6,0.1,1.2,0.1h0.3v-2.4
			c0-0.5,0-1-0.1-1.3h1.1c-0.1,0.3-0.1,0.8-0.1,1.3v2.4h1.3v-3.4c0-0.6,0-1.1-0.1-1.4h1.1c-0.1,0.4-0.1,0.8-0.1,1.4v0.6h1.4
			c0.5,0,0.8,0,1.1-0.1v1c-0.4,0-0.6,0-1.1,0h-1.4v2H304z M304.8,103c-0.1,0.4-0.1,0.4-0.4,1.2c-0.6,2-1.6,3.4-2.9,4.4
			c-0.9,0.7-1.8,1.1-3.3,1.6c-0.2-0.4-0.3-0.6-0.6-0.9c2.3-0.7,3.6-1.4,4.5-2.6c0.7-0.8,1.3-2.5,1.6-4.1L304.8,103z M309.2,100.9
			c-0.1,0.3-0.1,0.8-0.1,1.5v2.1c0,1,0,1.4-0.1,1.9c-0.2,1-0.8,1.8-1.8,2.6c-0.8,0.6-1.3,0.8-2.6,1.3c-0.2-0.5-0.3-0.6-0.7-0.9
			c1.3-0.4,1.9-0.6,2.6-1.1c1.3-0.8,1.7-1.7,1.7-3.8v-2.1c0-0.6,0-1.1-0.1-1.4H309.2z M306.5,97.2c-0.8,0-1.1,0-1.5,0.1v-1
			c0.5,0.1,0.8,0.1,1.5,0.1h4.1c0.8,0,1.2,0,1.5-0.1v1c-0.5-0.1-0.8-0.1-1.5-0.1h-1.5c-0.2,0.6-0.2,0.8-0.7,1.8h1.5
			c0.8,0,1.1,0,1.6,0c0,0.3-0.1,0.6-0.1,1.1v4.9c0,0.7,0,1.1,0.1,1.6h-1.2c0.1-0.5,0.1-0.9,0.1-1.6v-5.1h-4.1v5.1
			c0,0.7,0,1.1,0.1,1.6h-1.1c0.1-0.5,0.1-0.9,0.1-1.6v-4.8c0-0.5,0-0.9-0.1-1.2c0.5,0,0.8,0,1.5,0h0.5c0.3-0.7,0.5-1.3,0.6-1.8
			H306.5z M309.4,107.1c0.9,0.5,2.1,1.4,3,2.2l-0.6,0.9c-1-1-1.7-1.5-3-2.4L309.4,107.1z"/>
		<path class="st2" d="M321.7,108.9c0,0.5,0,0.9,0.1,1.4h-1.2c0.1-0.5,0.1-0.9,0.1-1.4v-2.4h-4.8c-0.7,0-1.1,0-1.6,0.1v-1.1
			c0.4,0.1,1,0.1,1.6,0.1h4.9v-0.3c0-0.4,0-0.7-0.1-1h1.2c0,0.3-0.1,0.6-0.1,1v0.3h5.3c0.6,0,1.2,0,1.6-0.1v1.1
			c-0.5-0.1-1-0.1-1.7-0.1h-5.2V108.9z M314.3,103.6c1.2-0.4,2.5-1.1,3.7-2l0.4,0.8c-0.9,0.7-1.4,1-2.1,1.4
			c-0.3,0.2-0.4,0.2-0.8,0.4c-0.2,0.1-0.3,0.2-0.7,0.4L314.3,103.6z M315.9,97.9c-0.6,0-1.1,0-1.6,0.1v-1.1c0.5,0.1,0.9,0.1,1.7,0.1
			h4.8c-0.3-0.4-0.5-0.7-0.7-1l0.8-0.4c0.5,0.7,0.6,0.7,0.9,1.4h4.9c0.7,0,1.2,0,1.7-0.1V98c-0.5,0-1-0.1-1.6-0.1h-5.3
			c-1,1.4-1,1.4-1.7,2.2c0.4,0,0.4,0,0.9-0.1c0.7-0.1,0.7-0.1,1.2-0.1c0.2-0.2,0.4-0.6,0.9-1.2l0.8,0.5c-0.5,0.6-0.5,0.6-1.8,2.2
			c-0.4,0.5-0.9,1-1.8,1.8c1.8-0.2,2.1-0.2,2.9-0.3c-0.3-0.4-0.5-0.5-0.9-0.9l0.7-0.6c1,1.1,1.8,2,2.2,2.7l-0.8,0.6
			c-0.4-0.6-0.5-0.8-0.7-1.1c-1.4,0.2-1.4,0.2-2.6,0.3c-0.9,0.1-1.1,0.1-2.1,0.3c-0.4,0.1-0.4,0.1-0.8,0.1l-0.2-0.8
			c0.6-0.1,0.8-0.3,1.4-0.7c0.5-0.4,1-0.9,2-2c-0.6,0-0.8,0.1-1.2,0.1c-0.6,0-0.6,0-1,0.1c-0.3,0-0.3,0-0.5,0.1l-0.2-0.8
			c0.5-0.2,0.7-0.3,1.2-0.9c0.4-0.5,0.6-0.8,0.9-1.3H315.9z M315.7,98.6c0.9,0.7,1.5,1.2,2.2,2.1l-0.7,0.7c-0.9-1.1-1.2-1.4-2.2-2.2
			L315.7,98.6z M327.3,99.1c-0.8,0.9-1.5,1.5-2.6,2.3l-0.7-0.7c1.1-0.7,1.7-1.3,2.5-2.2L327.3,99.1z M325.1,101.6
			c1.3,0.8,2,1.3,3,2.3l-0.7,0.8c-1-1-1.7-1.6-3-2.4L325.1,101.6z"/>
	</g>
	<g>
		<path class="st2" d="M222.1,162.4c0.5,0,0.8,0,1.2-0.1c-0.1,0.4-0.1,0.8-0.1,1.3v4.4c0,0.5,0,0.9,0.1,1.4h-1.2v-1.1h-4.8v3.7
			c0,0.9,0,1.3,0.1,1.8h-1.3c0.1-0.5,0.1-1,0.1-1.8v-3.7h-4.5v1.1h-1.2c0.1-0.5,0.1-0.9,0.1-1.4v-4.4c0-0.5,0-0.8-0.1-1.3
			c0.4,0,0.7,0.1,1.2,0.1h4.5V161c0-0.8,0-1.2-0.1-1.7h1.3c-0.1,0.5-0.1,0.9-0.1,1.6v1.4H222.1z M216.3,163.3h-4.5v4h4.5V163.3z
			 M217.4,167.3h4.8v-4h-4.8V167.3z"/>
		<path class="st2" d="M228,166.8c0-0.7,0-1.2,0.1-2c-0.5,1-0.9,1.5-1.6,2.3c-0.1-0.3-0.4-0.7-0.6-0.9c1.3-1.4,2.4-3,3.1-4.9
			c0.3-0.8,0.5-1.6,0.6-2.2l1.1,0.4c-0.1,0.3-0.1,0.4-0.3,0.8c-0.4,1.2-0.7,1.9-1.3,3v8.5c0,0.7,0,1.3,0.1,1.9h-1.2
			c0.1-0.6,0.1-1,0.1-1.9V166.8z M235.5,172c1-2.3,2-5.9,2.2-7.7l1.2,0.4c-0.2,0.5-0.2,0.5-0.6,1.9c-0.5,1.9-1,3.4-1.8,5.4h2.5
			c0.8,0,1.3,0,1.7-0.1v1.2c-0.5-0.1-1.1-0.1-1.7-0.1h-7.3c-0.7,0-1.2,0-1.8,0.1v-1.2c0.4,0.1,0.9,0.1,1.7,0.1H235.5z M235.3,162.5
			c-0.7-1.5-0.8-1.6-1.5-2.5l0.8-0.5c0.5,0.7,1,1.5,1.6,2.6l-0.7,0.4h3.1c0.7,0,1.2,0,1.7-0.1v1.1c-0.5,0-1-0.1-1.7-0.1h-6.5
			c-0.8,0-1.3,0-1.7,0.1v-1.1c0.4,0.1,0.9,0.1,1.7,0.1H235.3z M233.1,171.1c-0.5-2.6-0.9-4.3-1.7-6.3l1-0.4c0.8,2.1,1.2,3.6,1.8,6.3
			L233.1,171.1z"/>
		<path class="st2" d="M249.2,162.6c0.6,0,0.8,0,1.1-0.1v1c-0.3,0-0.5-0.1-1.1-0.1h-2.1v0.3c1.4,0.7,1.4,0.7,2.5,1.4l-0.5,0.8
			c-0.7-0.6-0.9-0.7-1.6-1.2c-0.1-0.1-0.2-0.1-0.3-0.2v1c0,0.2,0,0.5,0.1,0.7h-1c0-0.2,0.1-0.4,0.1-0.7v-0.9c0-0.3,0-0.5,0.1-0.9
			c-0.8,1.4-1.4,2-3,3.2c-0.2-0.3-0.4-0.5-0.7-0.8c1.1-0.7,1.7-1.1,2.4-1.8c0.2-0.2,0.3-0.3,0.6-0.8h-1.5c-0.6,0-0.9,0-1.3,0.1v-1
			c0.3,0.1,0.7,0.1,1.3,0.1h2.1v-2.1c0-0.4,0-0.7-0.1-1.1h1.1c-0.1,0.4-0.1,0.6-0.1,1.1v2.1H249.2z M248.8,172.8
			c-0.7-0.5-0.9-0.7-1.5-1c-0.9,0.8-2.1,1.4-4.1,2c-0.1-0.4-0.3-0.6-0.5-0.9c1.6-0.4,2.8-0.9,3.7-1.6c-0.8-0.4-1.2-0.6-2.6-1.1
			c0.6-0.7,0.7-1,1.2-1.7h-1c-0.5,0-0.8,0-1.2,0.1v-1c0.3,0.1,0.6,0.1,1.2,0.1h1.4c0.2-0.4,0.3-0.6,0.5-1.3l1,0.2
			c-0.3,0.6-0.3,0.8-0.4,1h2.2c0.1,0,0.5,0,1.2,0c-0.5,1.6-0.9,2.3-1.8,3.5c0.7,0.4,0.8,0.4,1.4,0.8L248.8,172.8z M244.1,159.7
			c0.5,0.8,0.8,1.3,1.2,2.1l-0.9,0.4c-0.3-0.9-0.6-1.4-1.2-2.1L244.1,159.7z M245.9,168.5c-0.2,0.4-0.4,0.6-0.8,1.3
			c0.9,0.4,1.2,0.5,2,0.8c0.6-0.7,1.1-1.5,1.4-2.2H245.9z M250,160.1c-0.5,1.1-0.8,1.6-1.4,2.3l-0.8-0.4c0.6-0.8,1-1.4,1.3-2.3
			L250,160.1z M257.2,163.5c-0.4-0.1-0.6-0.1-1.4-0.1c-0.2,2.7-0.7,4.6-1.8,6.4c0.9,1.3,2,2.2,3.6,3c-0.3,0.3-0.4,0.5-0.6,1
			c-1.5-0.8-2.6-1.9-3.6-3.2c-1.1,1.3-2.3,2.3-4.1,3.3c-0.2-0.4-0.4-0.6-0.7-0.9c1.9-0.9,3.2-1.9,4.1-3.3c-0.9-1.5-1.3-2.8-1.6-4.7
			c-0.4,0.8-0.6,1.2-1.2,1.9c-0.3-0.3-0.4-0.4-0.8-0.6c0.8-1,1.4-2,2-3.5c0.4-1.2,0.8-2.4,0.8-3.4l1.1,0.2c-0.1,0.2-0.1,0.2-0.3,1
			c-0.2,0.8-0.3,1-0.5,1.9h3.4c0.7,0,1.1,0,1.5-0.1V163.5z M251.9,163.4c0,0.1,0,0.1-0.1,0.2c0,0.1-0.1,0.1-0.1,0.2
			c0.3,1.5,0.3,1.5,0.5,2.3c0.3,1.1,0.7,1.9,1.1,2.8c0.4-0.8,0.7-1.4,0.9-2.3c0.3-1,0.4-1.7,0.5-3.2H251.9z"/>
	</g>
	<g>
		<path class="st2" d="M210.4,214.2c0-0.8,0-1.4-0.1-2c0.5,0.1,1,0.1,1.9,0.1h9.6c0.8,0,1.3,0,1.9-0.1c-0.1,0.6-0.1,1.1-0.1,2v8.9
			c0,1,0,1.4,0.1,1.8h-1.1v-1h-11.1v1h-1.2c0.1-0.5,0.1-0.9,0.1-1.9V214.2z M215.7,213.2c0,2.3-0.3,3.9-0.8,5c-0.5,1-1.3,2-2.5,2.8
			c-0.2-0.3-0.4-0.6-0.7-0.8c1.3-0.8,1.9-1.5,2.4-2.6c0.4-1,0.6-2.2,0.7-4.3h-3.2v9.7h11.1v-9.7H219v5.4c0,0.4,0.1,0.4,0.8,0.4
			c0.7,0,1.2,0,2.3-0.2v1c-0.7,0.1-1.2,0.1-2.2,0.1c-1.6,0-1.9-0.2-1.9-1.1v-5.7H215.7z"/>
		<path class="st2" d="M232.2,211.5c-0.1,0.2-0.2,0.3-0.4,0.8c-1.2,2.5-2.8,4.3-5,6c-0.2-0.3-0.4-0.6-0.8-0.9
			c1.9-1.3,3.3-2.8,4.4-4.7c0.4-0.7,0.6-1.2,0.7-1.7L232.2,211.5z M232.8,217.8c-0.1,1.7-0.5,3-1.2,4.2c-0.8,1.4-2.1,2.5-4,3.5
			c-0.2-0.4-0.4-0.6-0.7-0.9c2-1,3.3-2,4-3.5c0.5-1,0.8-1.9,0.9-3.3h-1c-0.6,0-1.2,0-1.6,0.1v-1.1c0.5,0.1,1,0.1,1.7,0.1h5.3
			c0.7,0,1.2,0,1.7-0.1c0,0.3,0,0.4-0.1,1.1c0,3.1-0.3,5.8-0.7,6.6c-0.3,0.5-0.6,0.6-1.6,0.6c-0.6,0-1.1,0-2.1-0.1
			c0-0.4-0.1-0.7-0.3-1.1c0.9,0.2,1.6,0.3,2.3,0.3c0.5,0,0.7-0.1,0.8-0.4c0.3-1,0.5-3.1,0.5-5.9H232.8z M235.6,211.2
			c0.1,0.4,0.3,0.7,0.6,1.3c1.2,2.1,2.5,3.5,4.7,5c-0.3,0.3-0.5,0.6-0.8,1c-2.5-1.9-3.9-3.5-5.4-6.4c-0.1-0.1-0.2-0.3-0.3-0.4
			L235.6,211.2z"/>
		<path class="st2" d="M244.4,218.5c0-0.7,0-1.2,0.1-2c-0.5,1-0.9,1.5-1.6,2.3c-0.1-0.3-0.4-0.7-0.6-0.9c1.3-1.4,2.4-3,3.1-4.9
			c0.3-0.8,0.5-1.6,0.6-2.2l1.1,0.4c-0.1,0.3-0.1,0.4-0.3,0.8c-0.4,1.2-0.7,1.9-1.3,3v8.5c0,0.7,0,1.3,0.1,1.9h-1.2
			c0.1-0.6,0.1-1,0.1-1.9V218.5z M251.9,223.7c1-2.3,2-5.9,2.2-7.7l1.2,0.4c-0.2,0.5-0.2,0.5-0.6,1.9c-0.5,1.9-1,3.4-1.8,5.4h2.5
			c0.8,0,1.3,0,1.7-0.1v1.2c-0.5-0.1-1.1-0.1-1.7-0.1h-7.3c-0.7,0-1.2,0-1.8,0.1v-1.2c0.4,0.1,0.9,0.1,1.7,0.1H251.9z M251.7,214.2
			c-0.7-1.5-0.8-1.6-1.5-2.5l0.8-0.5c0.5,0.7,1,1.5,1.6,2.6l-0.7,0.4h3.1c0.7,0,1.2,0,1.7-0.1v1.1c-0.5,0-1-0.1-1.7-0.1h-6.5
			c-0.8,0-1.3,0-1.7,0.1v-1.1c0.4,0.1,0.9,0.1,1.7,0.1H251.7z M249.5,222.8c-0.5-2.6-0.9-4.3-1.7-6.3l1-0.4c0.8,2.1,1.2,3.6,1.8,6.3
			L249.5,222.8z"/>
		<path class="st2" d="M265.6,214.3c0.6,0,0.8,0,1.1-0.1v1c-0.3,0-0.5-0.1-1.1-0.1h-2.1v0.3c1.4,0.7,1.4,0.7,2.5,1.4l-0.5,0.8
			c-0.7-0.6-0.9-0.7-1.6-1.2c-0.1-0.1-0.2-0.1-0.3-0.2v1c0,0.2,0,0.5,0.1,0.7h-1c0-0.2,0.1-0.4,0.1-0.7v-0.9c0-0.3,0-0.5,0.1-0.9
			c-0.8,1.4-1.4,2-3,3.2c-0.2-0.3-0.4-0.5-0.7-0.8c1.1-0.7,1.7-1.1,2.4-1.8c0.2-0.2,0.3-0.3,0.6-0.8h-1.5c-0.6,0-0.9,0-1.3,0.1v-1
			c0.3,0.1,0.7,0.1,1.3,0.1h2.1v-2.1c0-0.4,0-0.7-0.1-1.1h1.1c-0.1,0.4-0.1,0.6-0.1,1.1v2.1H265.6z M265.2,224.5
			c-0.7-0.5-0.9-0.7-1.5-1c-0.9,0.8-2.1,1.4-4.1,2c-0.1-0.4-0.3-0.6-0.5-0.9c1.6-0.4,2.8-0.9,3.7-1.6c-0.8-0.4-1.2-0.6-2.6-1.1
			c0.6-0.7,0.7-1,1.2-1.7h-1c-0.5,0-0.8,0-1.2,0.1v-1c0.3,0.1,0.6,0.1,1.2,0.1h1.4c0.2-0.4,0.3-0.6,0.5-1.3l1,0.2
			c-0.3,0.6-0.3,0.8-0.4,1h2.2c0.1,0,0.5,0,1.2,0c-0.5,1.6-0.9,2.3-1.8,3.5c0.7,0.4,0.8,0.4,1.4,0.8L265.2,224.5z M260.5,211.4
			c0.5,0.8,0.8,1.3,1.2,2.1l-0.9,0.4c-0.3-0.9-0.6-1.4-1.2-2.1L260.5,211.4z M262.3,220.2c-0.2,0.4-0.4,0.6-0.8,1.3
			c0.9,0.4,1.2,0.5,2,0.8c0.6-0.7,1.1-1.5,1.4-2.2H262.3z M266.4,211.8c-0.5,1.1-0.8,1.6-1.4,2.3l-0.8-0.4c0.6-0.8,1-1.4,1.3-2.3
			L266.4,211.8z M273.6,215.2c-0.4-0.1-0.6-0.1-1.4-0.1c-0.2,2.7-0.7,4.6-1.8,6.4c0.9,1.3,2,2.2,3.6,3c-0.3,0.3-0.4,0.5-0.6,1
			c-1.5-0.8-2.6-1.9-3.6-3.2c-1.1,1.3-2.3,2.3-4.1,3.3c-0.2-0.4-0.4-0.6-0.7-0.9c1.9-0.9,3.2-1.9,4.1-3.3c-0.9-1.5-1.3-2.8-1.6-4.7
			c-0.4,0.8-0.6,1.2-1.2,1.9c-0.3-0.3-0.4-0.4-0.8-0.6c0.8-1,1.4-2,2-3.5c0.4-1.2,0.8-2.4,0.8-3.4l1.1,0.2c-0.1,0.2-0.1,0.2-0.3,1
			c-0.2,0.8-0.3,1-0.5,1.9h3.4c0.7,0,1.1,0,1.5-0.1V215.2z M268.3,215.1c0,0.1,0,0.1-0.1,0.2c0,0.1-0.1,0.1-0.1,0.2
			c0.3,1.5,0.3,1.5,0.5,2.3c0.3,1.1,0.7,1.9,1.1,2.8c0.4-0.8,0.7-1.4,0.9-2.3c0.3-1,0.4-1.7,0.5-3.2H268.3z"/>
		<path class="st2" d="M279.4,221.7c-0.8,1.2-2,2.6-3.1,3.6l-0.8-0.8c1-0.7,2.3-2,3.2-3.5L279.4,221.7z M285.4,213.5
			c0,0.4,0,0.7,0.1,1h-1.1c0-0.3,0-0.6,0-1v-0.2h-3.8v0.3c0,0.4,0,0.7,0.1,1h-1.1c0-0.3,0.1-0.6,0.1-1v-0.3h-2.5
			c-0.7,0-1.1,0-1.6,0.1v-1.1c0.4,0.1,0.9,0.1,1.6,0.1h2.4V212c0-0.4,0-0.7-0.1-1h1.1c0,0.3-0.1,0.6-0.1,1v0.3h3.8V212
			c0-0.4,0-0.7,0-1h1.1c0,0.3-0.1,0.6-0.1,1v0.3h2.7c0.7,0,1.2,0,1.6-0.1v1.1c-0.5-0.1-0.9-0.1-1.6-0.1h-2.7V213.5z M278.4,220
			c-0.8-0.8-1.4-1.1-2.7-1.8l0.6-0.8c1.2,0.6,1.9,1,2.7,1.7L278.4,220z M279,217c-0.8-0.7-1.5-1.2-2.6-1.8l0.6-0.8
			c1,0.5,1.8,1,2.6,1.7L279,217z M287.1,215.4c0.7,0,1.2,0,1.7-0.1c0,0.3,0,0.3-0.1,1.8c0,1.5-0.3,3-0.5,3.4
			c-0.3,0.4-0.6,0.6-1.5,0.6c-0.4,0-0.8,0-1.6-0.1c0-0.3-0.1-0.6-0.2-1c0.6,0.1,1.4,0.2,1.9,0.2c0.6,0,0.7-0.1,0.8-0.8
			c0.1-0.6,0.2-1.8,0.2-3H282v7.2c0,0.6,0.3,0.7,2.9,0.7c2.6,0,3.2-0.1,3.5-0.5c0.2-0.3,0.3-1.2,0.4-2.2c0.4,0.2,0.6,0.4,1,0.5
			c-0.2,1.5-0.4,2.3-0.8,2.7c-0.4,0.4-1.5,0.5-4.3,0.5c-3.3,0-3.7-0.2-3.7-1.5v-6.8c0-0.8,0-1.2-0.1-1.6c0.4,0,0.9,0.1,1.5,0.1
			H287.1z"/>
		<path class="st2" d="M304.5,225.6v-1h-11.1v1h-1.1c0.1-0.6,0.1-1,0.1-1.9v-10c0-0.8,0-1.2-0.1-2c0.6,0.1,1,0.1,1.9,0.1h9.6
			c0.9,0,1.3,0,1.9-0.1c-0.1,0.7-0.1,1.2-0.1,2v10c0,0.9,0,1.4,0.1,1.9H304.5z M293.4,223.7h11.1v-11h-11.1V223.7z M295.8,215.2
			c-0.8,0-1.1,0-1.5,0.1v-1c0.5,0.1,0.8,0.1,1.6,0.1h2.6v-0.1c0-0.3,0-0.8-0.1-1.1h1.2c-0.1,0.3-0.1,0.8-0.1,1v0.2h2.7
			c0.7,0,1.1,0,1.5-0.1v1c-0.4-0.1-0.8-0.1-1.5-0.1h-2.8v1.3h2.2c0.8,0,1,0,1.4-0.1v1c-0.4-0.1-0.7-0.1-1.4-0.1h-2.2v1.4h3.1
			c0.5,0,0.9,0,1.4,0c-0.1,0.5-0.1,0.7-0.2,1.3c-0.2,1-0.3,1.4-0.5,1.8c-0.3,0.4-0.6,0.6-1.4,0.6c-0.3,0-0.8,0-1.4-0.1
			c0-0.5-0.1-0.6-0.2-1c0.7,0.1,1.1,0.2,1.5,0.2c0.5,0,0.6-0.1,0.8-0.5c0.1-0.3,0.2-0.7,0.2-1.3h-3.4v2.2c0,0.8,0,1,0.1,1.5h-1.2
			c0.1-0.5,0.1-0.8,0.1-1.5v-2.2h-2.9c-0.7,0-1.1,0-1.5,0.1v-1c0.4,0.1,0.7,0.1,1.5,0.1h2.9v-1.4h-2c-0.7,0-1.1,0-1.5,0.1v-1
			c0.4,0.1,0.7,0.1,1.5,0.1h2v-1.3H295.8z"/>
	</g>
	<g>
		<path class="st2" d="M211.4,54.9c0.2,0.5,0.3,0.8,0.6,1c0.4,0.5,1.1,0.8,2,0.8c1.2,0,2-0.5,2.6-1.5c0.3-0.5,0.6-1.3,0.7-2
			c0.1-0.4,0.1-1.1,0.1-1.9c-0.2,0.4-0.4,0.6-0.6,0.9c-0.8,0.8-1.7,1.1-2.9,1.1c-1.2,0-2.2-0.4-2.9-1.1s-1.1-1.7-1.1-2.9
			c0-2.5,1.7-4.2,4.3-4.2c1.8,0,3.3,1,3.9,2.7c0.3,0.9,0.5,2,0.5,3.3c0,2.2-0.5,4-1.3,5.1c-0.8,1-1.9,1.5-3.3,1.5
			c-1.1,0-2-0.3-2.7-0.9c-0.4-0.4-0.7-0.7-1.1-1.6L211.4,54.9z M217.1,49.3c0-1.7-1.3-3-3-3c-1.1,0-2,0.5-2.5,1.4
			c-0.3,0.4-0.4,1.1-0.4,1.7c0,1.8,1.1,2.9,2.8,2.9C215.7,52.2,217.1,51,217.1,49.3z"/>
		<path class="st2" d="M222.7,50c0,0.3,0,0.3-0.1,0.7c0.8-0.7,1.7-1.1,2.8-1.1c1.2,0,2.2,0.4,2.9,1.1c0.7,0.7,1.1,1.6,1.1,2.8
			c0,2.6-1.7,4.2-4.3,4.2c-1.2,0-2.3-0.4-3.1-1.1c-0.4-0.4-0.6-0.7-1-1.5l1.3-0.4c0.2,0.4,0.3,0.7,0.5,0.9c0.5,0.6,1.3,0.9,2.3,0.9
			c1.8,0,3-1.2,3-3.1c0-1.8-1.1-2.9-2.8-2.9c-0.8,0-1.5,0.2-2.1,0.7c-0.4,0.3-0.6,0.5-0.7,1l-1.2-0.1c0.1-0.6,0.2-1,0.2-1.6l0.4-3.6
			c0-0.5,0-0.7,0-1c0-0.2,0-0.3,0-0.7c0.5,0.1,0.8,0.1,1.7,0.1h3.3c0.9,0,1.2,0,1.9-0.1v1.4c-0.6-0.1-1.1-0.1-1.9-0.1h-3.8L222.7,50
			z"/>
		<path class="st2" d="M232.4,51.3c-0.6-0.6-0.9-1.5-0.9-2.7c0-2.1,1-3.4,2.8-3.4c1.7,0,2.8,1.2,2.8,3.4c0,1.2-0.3,2.1-0.9,2.7
			c-0.5,0.5-1.1,0.7-1.9,0.7C233.5,52,232.9,51.7,232.4,51.3z M232.6,48.6c0,1.6,0.6,2.5,1.7,2.5c1.1,0,1.7-0.9,1.7-2.5
			c0-1.6-0.6-2.5-1.7-2.5C233.2,46.1,232.6,47,232.6,48.6z M242.4,45.1l0.7,0.5l-9.7,12.3l-0.7-0.5L242.4,45.1z M239.5,57.1
			c-0.6-0.6-0.9-1.5-0.9-2.7c0-2.2,1-3.4,2.8-3.4c1.8,0,2.8,1.2,2.8,3.4c0,1.2-0.3,2.1-0.9,2.7c-0.5,0.5-1.1,0.7-1.9,0.7
			C240.7,57.8,240,57.5,239.5,57.1z M239.7,54.4c0,1.6,0.6,2.4,1.7,2.4c1.1,0,1.7-0.9,1.7-2.4c0-1.6-0.6-2.5-1.7-2.5
			C240.3,51.9,239.7,52.8,239.7,54.4z"/>
		<path class="st2" d="M254.4,52.2c0-0.7,0-1.3,0-1.7c0.5,0,0.8,0,1.6,0h1.8c0.1-0.4,0.1-0.4,0.3-0.9h-4.5c-0.7,0-1.1,0-1.6,0.1v-1
			c0.5,0.1,0.9,0.1,1.6,0.1h4.7c0.1-0.3,0.1-0.5,0.2-0.9h-4c-0.9,0-1.4,0-1.7,0c0-0.4,0.1-0.7,0.1-1.1V46c0-0.5,0-0.8-0.1-1.2
			c0.5,0,1,0.1,1.8,0.1h9.1c0.8,0,1.4,0,1.8-0.1c0,0.4-0.1,0.7-0.1,1.2v0.8c0,0.5,0,0.8,0.1,1.1c-0.4,0-0.8,0-1.7,0h-4.2
			c-0.1,0.3-0.1,0.5-0.2,0.9h5c0.7,0,1.2,0,1.6-0.1v1c-0.5-0.1-0.9-0.1-1.6-0.1H259c-0.1,0.4-0.1,0.4-0.3,0.9h3.3
			c0.8,0,1.2,0,1.6-0.1c0,0.4,0,1,0,1.7v5.2h0.7c0.7,0,1.2,0,1.6-0.1v1c-0.5-0.1-0.9-0.1-1.6-0.1h-10.7c-0.7,0-1.1,0-1.6,0.1v-1
			c0.5,0.1,0.9,0.1,1.6,0.1h0.8V52.2z M256.6,45.7h-2.9v1.4h2.9V45.7z M262.7,52.2v-0.9h-7.3v0.9H262.7z M255.4,53.9h7.3v-0.9h-7.3
			V53.9z M255.4,55.6h7.3v-1h-7.3V55.6z M255.4,57.4h7.3v-1.1h-7.3V57.4z M260.4,45.7h-2.9v1.4h2.9V45.7z M264.4,47.1v-1.4h-3v1.4
			H264.4z"/>
		<path class="st2" d="M270.9,57c0,0.7,0,1.3,0.1,1.9h-1.2c0.1-0.6,0.1-1.1,0.1-1.9v-5.3c0-0.8,0-1.1,0-1.9
			c-0.5,0.9-0.7,1.4-1.5,2.4c-0.2-0.4-0.3-0.5-0.6-0.9c1.2-1.4,2-2.8,2.7-4.6c0.4-1,0.5-1.5,0.6-2.3l1.1,0.3
			c-0.1,0.3-0.2,0.5-0.3,0.9c-0.3,0.8-0.6,1.6-1,2.6V57z M277.3,46.8c-0.7-1.1-0.9-1.4-1.6-2.1l0.7-0.6c0.6,0.6,1.1,1.2,1.8,2.3
			l-0.6,0.4h3.5c0.6,0,1.1,0,1.5-0.1v1.1c-0.5-0.1-1-0.1-1.6-0.1h-7.6c-0.5,0-0.9,0-1.3,0.1v-1.1c0.4,0.1,0.8,0.1,1.3,0.1H277.3z
			 M274.1,58.8h-1.1c0-0.4,0.1-0.9,0.1-1.5v-2.2c0-0.6,0-1.1-0.1-1.5c0.3,0,0.8,0.1,1.3,0.1h5.3c0.7,0,1.2,0,1.5-0.1
			c0,0.4-0.1,0.9-0.1,1.5v2.2c0,0.6,0,1,0.1,1.5h-1.1v-0.7h-6V58.8z M281.2,50c-0.4-0.1-0.8-0.1-1.4-0.1h-5.3c-0.6,0-0.9,0-1.3,0.1
			v-1c0.4,0.1,0.7,0.1,1.3,0.1h5.3c0.6,0,1,0,1.4-0.1V50z M281.2,52.3c-0.4-0.1-0.8-0.1-1.4-0.1h-5.3c-0.6,0-0.9,0-1.3,0.1v-1
			c0.4,0.1,0.7,0.1,1.3,0.1h5.3c0.6,0,1,0,1.4-0.1V52.3z M280.2,57.2v-2.7h-6v2.7H280.2z"/>
		<path class="st2" d="M297.1,57.1c0.8,0,1.3,0,1.6-0.1v1.2c-0.5-0.1-0.9-0.1-1.7-0.1h-10.4c-0.5,0-0.9,0-1.3,0.1
			c0-0.4,0.1-0.7,0.1-1.2V46.8c0-0.7,0-1.2-0.1-1.7c0.5,0.1,1,0.1,1.7,0.1h9.6c0.8,0,1.2,0,1.7-0.1v1.2c-0.5-0.1-1-0.1-1.7-0.1
			h-10.1v10.9H297.1z M296.6,55.8c-1.5-1.6-2-2.1-3.7-3.5c-1.4,1.6-2.6,2.5-4.7,3.8c-0.3-0.3-0.5-0.5-0.8-0.8c2-1.2,3.4-2.2,4.8-3.7
			c-1.3-1.1-2.4-1.8-4-2.8l0.7-0.8c1.8,1.2,2.4,1.6,4,2.9c1.1-1.3,2-2.9,2.3-4l1.1,0.5c-0.2,0.2-0.2,0.3-0.4,0.8
			c-0.6,1.2-1.3,2.2-2.2,3.3c1.1,0.8,2.3,2,3.7,3.3L296.6,55.8z"/>
		<path class="st2" d="M302.8,47.6c-0.1,0.5-0.1,0.9-0.1,1.8V57c0,0.9,0,1.4,0.1,1.8h-1.2c0.1-0.5,0.1-1,0.1-1.8v-7.6
			c0-0.8,0-1.2-0.1-1.8H302.8z M303,44.3c1,1,1.3,1.5,2.5,3.1l-0.9,0.6c-0.8-1.3-1-1.5-2.4-3.1L303,44.3z M305.1,50.1
			c0-0.6,0-1-0.1-1.4c0.4,0,0.7,0.1,1.2,0.1h3.8c0.6,0,0.9,0,1.3-0.1c0,0.3-0.1,0.8-0.1,1.5v4.4c0,0.7,0,1.2,0.1,1.6
			c-0.2,0-0.2,0-0.4,0c0,0-0.4,0-1.1,0h-3.8v1.2h-1c0.1-0.4,0.1-0.8,0.1-1.5V50.1z M307.5,46c-0.7,0-1,0-1.5,0.1V45
			c0.4,0.1,0.8,0.1,1.4,0.1h6.1c0.6,0,1,0,1.3-0.1c0,0.4-0.1,0.8-0.1,1.4v11.2c0,0.4-0.1,0.7-0.3,0.9c-0.3,0.2-0.7,0.3-1.7,0.3
			c-0.3,0-0.6,0-1.6,0c-0.1-0.6-0.1-0.8-0.3-1.2c0.9,0.2,1.2,0.2,1.9,0.2c0.8,0,1,0,1-0.4V46H307.5z M306.1,52.1h4.2v-2.4h-4.2V52.1
			z M306.1,55.2h4.2v-2.3h-4.2V55.2z"/>
	</g>
	<path class="st3" d="M125.2,76.8c0,0-0.1,0.7,0.1,2c0.2,1.3,0.6,3.3,1.4,5.8c0.8,2.5,2.1,5.5,4.1,9c1,1.7,2.1,3.6,3.4,5.5
		c0.7,1,1.5,2,2.3,3c0.4,0.5,0.8,1,1.3,1.5c0.5,0.5,1,1.1,1.5,1.6c4.1,4.3,10.1,8.9,15.6,13.8c2.9,2.4,5.3,5,7.3,7.5
		c2,2.6,3.3,5.2,4.1,7.9c0.4,1.3,0.8,2.7,0.2,4c-0.5,1.4-1.6,2.7-3.4,4.1c-0.8,0.7-1.9,1.4-3,2.1c-1.2,0.7-2.4,1.4-3.6,2.1
		c-2.4,1.4-5,2.8-7.1,4.2c-2.1,1.4-3.6,2.8-4.4,4.2c-0.8,1.4-0.8,2.8-0.6,4.2c0.4,2.8,1.9,5.7,4.4,8.5c2.4,2.8,5.9,5.7,8.9,8.5
		c3.2,2.8,6.1,5.7,7.7,8.5c1.7,2.8,2.3,5.6,1.8,8.3c-0.4,2.7-1.4,5.5-3,8.1c-3.1,5.3-9,10.5-14.7,15.4c-1.4,1.2-2.7,2.4-4,3.6
		c-1.3,1.2-2.6,2.4-3.7,3.5c-0.6,0.6-1.1,1.1-1.7,1.7c-0.5,0.6-1,1.1-1.5,1.7c-1,1.1-1.8,2.2-2.6,3.3c-1.6,2.1-2.7,4.2-3.8,6.1
		c-0.5,1-1,1.9-1.5,2.8c-0.4,0.9-0.9,1.8-1.3,2.7c-1.6,3.5-2.7,6.5-3.4,9c-1.4,5-1.2,7.8-1.2,7.8c0,0.4-0.3,0.7-0.7,0.8
		c-0.4,0-0.7-0.3-0.8-0.7c0,0,0-0.1,0-0.1c0,0,0.2-2.8-1.2-7.8c-0.7-2.5-1.8-5.5-3.4-9c-0.4-0.9-0.9-1.8-1.3-2.7
		c-0.5-0.9-1-1.9-1.5-2.8c-1.1-1.9-2.2-4-3.8-6.1c-0.8-1.1-1.6-2.2-2.6-3.3c-0.5-0.6-1-1.1-1.5-1.7c-0.5-0.6-1.1-1.1-1.7-1.7
		c-1.1-1.2-2.4-2.3-3.7-3.5c-1.3-1.2-2.6-2.4-4-3.6c-5.6-4.9-11.5-10-14.7-15.4c-1.6-2.7-2.6-5.4-3-8.1c-0.4-2.7,0.1-5.5,1.8-8.3
		c1.6-2.8,4.5-5.6,7.7-8.5c3-2.8,6.5-5.7,8.9-8.5c2.5-2.8,4-5.7,4.4-8.5c0.2-1.4,0.3-2.8-0.6-4.2c-0.8-1.4-2.3-2.8-4.4-4.2
		c-2-1.4-4.7-2.8-7.1-4.2c-1.2-0.7-2.4-1.4-3.6-2.1c-1.1-0.7-2.2-1.4-3-2.1c-1.8-1.4-2.9-2.7-3.4-4.1c-0.5-1.4-0.1-2.7,0.2-4
		c0.8-2.7,2.1-5.3,4.1-7.9c2-2.6,4.5-5.1,7.3-7.5c5.5-4.9,11.6-9.5,15.6-13.8c0.5-0.5,1-1.1,1.5-1.6c0.5-0.5,0.9-1,1.3-1.5
		c0.9-1,1.7-2,2.3-3c1.3-1.9,2.4-3.8,3.4-5.5c2-3.5,3.3-6.5,4.1-9c0.8-2.5,1.2-4.4,1.4-5.8c0.2-1.3,0.1-2,0.1-2
		c0-0.4,0.3-0.8,0.7-0.8c0.4,0,0.8,0.3,0.8,0.7C125.2,76.7,125.2,76.7,125.2,76.8z"/>
	<line class="st4" x1="124.4" y1="88.2" x2="124.4" y2="242.1"/>
	<rect x="116.1" y="138.3" class="st5" width="16.8" height="59.1"/>
	<circle class="st6" cx="124.4" cy="167.8" r="5.7"/>
</g>
<g id="Layer_1">
	<g>
		<g>
			<polyline class="st7" points="145.9,127.3 167.6,105.5 202,105.5 			"/>
			<g>
				<g>
					
						<ellipse transform="matrix(0.7071 -0.7071 0.7071 0.7071 -49.1707 139.6486)" class="st6" cx="144" cy="129.2" rx="3.4" ry="3.4"/>
					<path class="st8" d="M146.7,131.9c1.5-1.5,1.5-3.9,0-5.4c-1.5-1.5-3.9-1.5-5.4,0c-1.5,1.5-1.5,3.9,0,5.4
						C142.8,133.4,145.2,133.4,146.7,131.9C148.2,130.4,145.2,133.4,146.7,131.9z M141.9,127.1c1.1-1.1,3-1.1,4.1,0
						c1.1,1.1,1.1,3,0,4.1c-1.1,1.1-3,1.1-4.1,0C140.8,130.1,140.8,128.2,141.9,127.1C143.1,126,140.8,128.2,141.9,127.1z"/>
				</g>
			</g>
		</g>
	</g>
	<g>
		<g>
			<polyline class="st7" points="124.6,187.2 156.4,218.9 202,218.9 			"/>
			<g>
				<g>
					
						<ellipse transform="matrix(0.7071 -0.7071 0.7071 0.7071 -95.9021 143.0949)" class="st6" cx="124.8" cy="187.3" rx="3.4" ry="3.4"/>
					<path class="st8" d="M127.5,184.6c-1.5-1.5-3.9-1.5-5.4,0c-1.5,1.5-1.5,3.9,0,5.4c1.5,1.5,3.9,1.5,5.4,0
						C129,188.5,129,186.1,127.5,184.6C126,183.1,129,186.1,127.5,184.6z M122.7,189.4c-1.1-1.1-1.1-3,0-4.1c1.1-1.1,3-1.1,4.1,0
						c1.1,1.1,1.1,3,0,4.1C125.7,190.5,123.8,190.5,122.7,189.4C121.6,188.2,123.8,190.5,122.7,189.4z"/>
				</g>
			</g>
		</g>
	</g>
	<g>
		<g>
			<polyline class="st7" points="127,107 181.3,52.7 202,52.7 			"/>
			<g>
				<g>
					
						<ellipse transform="matrix(0.7071 -0.7071 0.7071 0.7071 -40.865 120.1302)" class="st6" cx="124.6" cy="109.4" rx="3.4" ry="3.4"/>
					<path class="st8" d="M127.3,112.1c1.5-1.5,1.5-3.9,0-5.4c-1.5-1.5-3.9-1.5-5.4,0c-1.5,1.5-1.5,3.9,0,5.4
						C123.4,113.6,125.8,113.6,127.3,112.1C128.8,110.6,125.8,113.6,127.3,112.1z M122.5,107.3c1.1-1.1,3-1.1,4.1,0
						c1.1,1.1,1.1,3,0,4.1c-1.1,1.1-3,1.1-4.1,0C121.4,110.3,121.4,108.5,122.5,107.3C123.6,106.2,121.4,108.5,122.5,107.3z"/>
				</g>
			</g>
		</g>
	</g>
	<g>
		<g>
			<line class="st7" x1="128.4" y1="167.8" x2="202" y2="167.8"/>
			<g>
				<g>
					<circle class="st6" cx="128.6" cy="167.8" r="3.4"/>
					<path class="st8" d="M128.6,171.7c2.1,0,3.8-1.7,3.8-3.8s-1.7-3.8-3.8-3.8c-2.1,0-3.8,1.7-3.8,3.8S126.5,171.7,128.6,171.7
						C130.7,171.7,126.5,171.7,128.6,171.7z M128.6,164.9c1.6,0,2.9,1.3,2.9,2.9c0,1.6-1.3,2.9-2.9,2.9c-1.6,0-2.9-1.3-2.9-2.9
						C125.7,166.2,127,164.9,128.6,164.9C130.2,164.9,127,164.9,128.6,164.9z"/>
				</g>
			</g>
		</g>
	</g>
	<g>
	</g>
	<g>
	</g>
	<g>
	</g>
	<g>
	</g>
	<g>
	</g>
	<g>
	</g>
	<g>
	</g>
	<g>
	</g>
	<g>
	</g>
	<g>
	</g>
</g>
</svg>
